<?xml version="1.0" encoding="utf-8"?>
<!-- Generator: Adobe Illustrator 22.0.1, SVG Export Plug-In . SVG Version: 6.00 Build 0)  -->
<svg version="1.1" id="Layer_1" xmlns="http://www.w3.org/2000/svg" xmlns:xlink="http://www.w3.org/1999/xlink" x="0px" y="0px"
	 viewBox="0 0 1000 496" style="enable-background:new 0 0 1000 496;" xml:space="preserve">
<g>
	<path d="M170.1,217.9v129h-37.5c0-12.8-10.4-23.3-23.3-23.3c-12.8,0-23.3,10.4-23.3,23.3H48.6v-129h49.5v83.7h22.5v-83.7H170.1z"/>
	<path d="M170.1,150.4v45H48.6v-45h37.5c0,12.8,10.4,23.3,23.3,23.3c12.8,0,23.3-10.4,23.3-23.3H170.1z"/>
</g>
<g>
	<path d="M255.8,221.1h-31v-20.7h84.5v20.7h-31v81.3h-22.4V221.1z"/>
	<path d="M321.7,196H345v19.7h-23.3V196z M322.3,224.3h22.2v78.1h-22.2V224.3z"/>
	<path d="M399.2,304.2c-5.8,0-11.2-1.1-16.3-3.2c-5-2.1-9.3-5-12.9-8.7c-3.6-3.6-6.4-7.9-8.5-12.8c-2-4.9-3.1-10.1-3.1-15.7v-0.3
		c0-5.5,1-10.8,3.1-15.7c2-5,4.9-9.3,8.5-13c3.6-3.7,7.9-6.6,12.9-8.7c5-2.1,10.5-3.2,16.5-3.2c7.4,0,13.5,1.2,18.4,3.5
		c4.9,2.3,9.1,5.5,12.8,9.6l-13.6,14.6c-2.5-2.6-5.1-4.7-7.8-6.3c-2.7-1.6-6-2.3-10-2.3c-2.8,0-5.4,0.6-7.7,1.7
		c-2.3,1.1-4.3,2.6-6,4.6c-1.7,1.9-3,4.2-3.9,6.8c-0.9,2.6-1.4,5.3-1.4,8.2v0.3c0,3,0.5,5.8,1.4,8.5c0.9,2.6,2.3,4.9,4,6.9
		c1.7,1.9,3.8,3.5,6.3,4.6c2.4,1.1,5.2,1.7,8.2,1.7c3.7,0,6.9-0.8,9.7-2.3c2.8-1.5,5.5-3.5,8.2-6l13,13.1c-3.8,4.2-8.1,7.6-13,10.3
		C413.3,302.9,407,304.2,399.2,304.2z"/>
	<path d="M442.7,196h22.2v56.7l25.9-28.4h26.5l-29.7,30.8l30.8,47.4H493l-20.4-31.9l-7.7,8.2v23.8h-22.2V196z"/>
	<path d="M563.1,304.2c-5.8,0-11.2-1-16.3-2.9c-5-1.9-9.3-4.7-13-8.3c-3.6-3.6-6.5-7.8-8.5-12.8c-2-4.9-3.1-10.4-3.1-16.4v-0.3
		c0-5.5,0.9-10.8,2.8-15.7c1.9-5,4.5-9.3,7.9-13c3.4-3.7,7.5-6.6,12.2-8.7c4.7-2.1,9.9-3.2,15.7-3.2c6.5,0,12.1,1.2,16.9,3.5
		c4.8,2.3,8.7,5.5,11.9,9.4c3.2,3.9,5.5,8.5,7,13.6c1.5,5.1,2.3,10.4,2.3,16c0,0.9,0,1.8-0.1,2.8c0,1-0.1,2-0.2,3.1h-54.4
		c1.1,5.1,3.3,8.9,6.6,11.4c3.4,2.6,7.5,3.9,12.5,3.9c3.7,0,7-0.6,9.9-1.9c2.9-1.3,5.9-3.3,9-6.1l12.7,11.2
		c-3.7,4.6-8.2,8.1-13.4,10.7C576.4,302.9,570.2,304.2,563.1,304.2z M577.4,257.3c-0.7-5-2.4-9-5.2-12c-2.8-3.1-6.6-4.6-11.2-4.6
		c-4.7,0-8.4,1.5-11.3,4.5c-2.9,3-4.7,7-5.6,12.1H577.4z"/>
	<path d="M638.9,303.8c-3.4,0-6.5-0.4-9.3-1.1c-2.8-0.7-5.2-2-7.1-3.9c-2-1.8-3.5-4.3-4.7-7.2c-1.1-3-1.7-6.7-1.7-11.3v-37h-9.3v-19
		h9.3v-20h22.2v20h18.4v19h-18.4v33.5c0,5.1,2.4,7.6,7.1,7.6c3.9,0,7.5-1,10.9-2.9v17.8c-2.3,1.4-4.9,2.5-7.7,3.3
		C645.8,303.3,642.6,303.8,638.9,303.8z"/>
	<path d="M692.2,303.9c-3.7,0-7.2-0.5-10.4-1.5c-3.3-1-6.1-2.6-8.5-4.6c-2.4-2-4.3-4.5-5.8-7.5c-1.4-3-2.1-6.4-2.1-10.3v-0.3
		c0-4.3,0.8-8,2.3-11.1c1.6-3.1,3.7-5.7,6.5-7.7c2.8-2,6.1-3.6,9.9-4.6c3.8-1,8.1-1.5,12.8-1.5c4,0,7.5,0.3,10.4,0.9
		c3,0.6,5.9,1.4,8.7,2.3v-1.3c0-4.7-1.4-8.2-4.2-10.6c-2.8-2.4-7-3.6-12.5-3.6c-4.3,0-8,0.4-11.3,1.1c-3.3,0.7-6.7,1.8-10.3,3.1
		l-5.5-16.9c4.3-1.8,8.7-3.4,13.4-4.5c4.7-1.2,10.3-1.7,16.9-1.7c6.1,0,11.3,0.8,15.7,2.3c4.3,1.5,7.9,3.7,10.7,6.5
		c2.9,2.9,5.1,6.5,6.4,10.7c1.4,4.2,2,9,2,14.2v45.3h-21.4V294c-2.7,3-6,5.4-9.8,7.2C702.3,303,697.7,303.9,692.2,303.9z
		 M698.9,288.6c5.2,0,9.5-1.3,12.6-3.8c3.2-2.5,4.7-5.8,4.7-9.9V271c-1.9-0.9-4.1-1.6-6.5-2.1c-2.4-0.5-4.9-0.8-7.7-0.8
		c-4.8,0-8.5,0.9-11.2,2.8c-2.7,1.8-4.1,4.5-4.1,8v0.3c0,3,1.1,5.3,3.4,7C692.4,287.8,695.4,288.6,698.9,288.6z"/>
	<path d="M779.8,303.8c-3.4,0-6.5-0.4-9.3-1.1c-2.8-0.7-5.2-2-7.1-3.9c-2-1.8-3.5-4.3-4.7-7.2c-1.1-3-1.7-6.7-1.7-11.3v-37h-9.3v-19
		h9.3v-20h22.2v20h18.4v19h-18.4v33.5c0,5.1,2.4,7.6,7.1,7.6c3.9,0,7.5-1,10.9-2.9v17.8c-2.3,1.4-4.9,2.5-7.7,3.3
		C786.8,303.3,783.5,303.8,779.8,303.8z"/>
	<path d="M849.4,304.2c-6,0-11.6-1-16.8-3.1c-5.2-2.1-9.6-5-13.3-8.6c-3.7-3.6-6.7-7.9-8.8-12.8c-2.1-4.9-3.2-10.2-3.2-15.8v-0.3
		c0-5.6,1.1-10.9,3.2-15.8c2.1-4.9,5.1-9.2,8.9-12.9c3.8-3.7,8.3-6.6,13.4-8.7c5.1-2.1,10.8-3.2,16.9-3.2c6,0,11.6,1,16.8,3.1
		c5.1,2.1,9.6,5,13.3,8.6c3.7,3.6,6.7,7.9,8.8,12.8c2.1,4.9,3.2,10.2,3.2,15.8v0.3c0,5.6-1.1,10.9-3.2,15.8
		c-2.1,4.9-5.1,9.2-8.9,12.9c-3.8,3.7-8.3,6.6-13.4,8.7C861.1,303.1,855.5,304.2,849.4,304.2z M849.7,285.1c3.2,0,6-0.6,8.5-1.7
		c2.5-1.1,4.6-2.6,6.3-4.6c1.7-1.9,3.1-4.2,4-6.8c0.9-2.6,1.4-5.3,1.4-8.2v-0.3c0-2.9-0.5-5.7-1.5-8.2c-1-2.6-2.4-4.9-4.2-6.9
		c-1.8-2-4-3.6-6.6-4.7c-2.5-1.2-5.3-1.7-8.3-1.7c-3.2,0-6,0.6-8.5,1.7c-2.5,1.1-4.6,2.6-6.3,4.6c-1.7,1.9-3.1,4.2-4,6.8
		c-0.9,2.6-1.4,5.3-1.4,8.2v0.3c0,2.9,0.5,5.7,1.5,8.2c1,2.6,2.4,4.9,4.2,6.9c1.8,2,4,3.6,6.5,4.7
		C843.8,284.5,846.6,285.1,849.7,285.1z"/>
	<path d="M904.9,224.3h22.2v15.7c2.2-5.3,5.3-9.6,9.2-12.8c3.9-3.2,9.1-4.7,15.7-4.4V246h-1.2c-7.4,0-13.2,2.2-17.4,6.7
		c-4.2,4.5-6.3,11.4-6.3,20.8v28.9h-22.2V224.3z"/>
</g>
</svg>
